File Name

Beneath Hill 60 2010 800p BRRip H264.mp4

File Size
Format : MPEG-4
Format profile : Base Media
Codec ID : isom
File size : 3.74 GiB
Duration : 2h 2mn
Overall bit rate : 4 387 Kbps

Video
ID : 1
Format : AVC
Format/Info : Advanced Video Codec
Format profile : High@L4.1
Format settings, CABAC : Yes
Format settings, ReFrames : 3 frames
Codec ID : avc1
Codec ID/Info : Advanced Video Coding
Duration : 2h 2mn
Bit rate mode : Variable
Bit rate : 3 749 Kbps
Maximum bit rate : 21.1 Mbps
Width : 1 920 pixels
Height : 800 pixels
Display aspect ratio : 2.40:1
Frame rate mode : Constant
Frame rate : 23.976 fps
Resolution : 24 bits
Colorimetry : 4:2:0
Scan type : Progressive
Bits/(Pixel*Frame) : 0.102
Stream size : 3.19 GiB (85%)

Audio #1
ID : 2
Format : AAC
Format/Info : Advanced Audio Codec
Format version : Version 4
Format profile : LC
Format settings, SBR : No
Codec ID : 40
Duration : 2h 2mn
Bit rate mode : Variable
Bit rate : 192 Kbps
Maximum bit rate : 200 Kbps
Channel(s) : 2 channels
Channel positions : L R
Sampling rate : 48.0 KHz
Resolution : 16 bits
Stream size : 167 MiB (4%)

Audio #2
ID : 3
Format : AAC
Format/Info : Advanced Audio Codec
Format version : Version 4
Format profile : LC
Format settings, SBR : No
Codec ID : 40
Duration : 2h 2mn
Bit rate mode : Variable
Bit rate : 448 Kbps
Maximum bit rate : 461 Kbps
Channel(s) : 6 channels
Channel positions : Front: L C R, Rear: L R, LFE
Sampling rate : 48.0 KHz
Resolution : 16 bits
Stream size : 391 MiB (10%)

English SRT : ----

Language : English



 
http://www.imdb.com/title/tt1418646/

Release Date: 15 April 2010 (Australia) 

Genre: Drama | History | War 

Plot: The extraordinary true story of Oliver Woodward. It's 1916 and Woodward must tear himself from his new young love to go to the mud and carnage of the Western Front. Deep beneath the German lines. Woodward and his secret platoon of Australian tunnelers fight to defend a leaking, labyrinthine tunnel system packed with enough high explosives to change the course of the War.

Cast: 
Brendan Cowell ... Captain Oliver Woodward
Harrison Gilbertson ... Frank Tiffin
Steve Le Marquand ... Sergeant Bill Fraser
Gyton Grantley ... Norman Morris
Alex Thompson ... Walter Sneddon
Alan Dukes ... Jim Sneddon
Mark Coles Smith ... Billy 'Streaky' Bacon
Warwick Young ... Percy Marsden
Anthony Hayes ... Captain William McBride
Leon Ford ... Lieutenant Robert Clayton
Chris Haywood ... Colonel Wilson Rutledge
Bob Franklin ... Potsy
Anthony Ring ... Stoat
Andy Bramble ... Wilf Piggott
Tom Green ... Hutchings




Screenshots:
 
http://www.imagebam.com/image/d14ea494007498
 
http://www.imagebam.com/image/7819e094007521
 
http://www.imagebam.com/image/432b4994007564
 
http://www.imagebam.com/image/2fb4e394007598
 
http://www.imagebam.com/image/309b8a94007636
 
http://www.imagebam.com/image/19c37094007694
 
http://www.imagebam.com/image/b1ffeb94007747
 
http://www.imagebam.com/image/cf201994007804
 
http://www.imagebam.com/image/1af7b694007837
 
http://www.imagebam.com/image/993e8b94007865
 
http://www.imagebam.com/image/b5bc3494007903







 
http://thepiratebay.org/user/hiest